:SAMPLES-PER-SECOND 30
:FRAME-RANGE 1-1770
:FULLY-SPECIFIED
:DEGREES
222
root  38.6685 39.3614 -32.9861 -1.85756 -42.9841 3.82463
RightUpLeg  -24.9307 4.79061 -5.31208
RightLeg  40.324 -10.3397 -9.53105
RightFoot  -4.56039 -0.492233 7.77139
RightToes  -1.33073e-015 0 -3.6325e-017
Spine  -3.52759 -0.749261 -3.50946
Spine1  7.66758 -0.914512 -0.0619193
HEad  5.08754 22.3389 -5.53687
LeftShoulder1  1.52704 -2.27239 -21.2496
LeftArm  5.12455 -0.9808 -53.1971
LeftForeArm  36.7147 0.392483 -14.0776
LeftHand  0.0191771 6.03091 7.76898
RightShoulder  1.54184 1.34516 27.1399
RightArm  -16.0675 10.9696 56.3775
RightForeArm  68.3832 -5.87215 7.46156
RightHand  0.200378 -6.59415 -20.3339
LeftUpLeg  -7.15816 -0.110068 -8.84498
LeftLeg  17.2521 -0.688552 0.0182106
LeftFoot  -11.2382 0.0623045 5.93138
LeftToes  1.09107e-011 -1.16422e-010 2.98337e-011
223
root  37.91 39.3673 -32.1285 -1.6053 -42.1121 3.27206
RightUpLeg  -24.5806 4.77828 -4.52178
RightLeg  30.456 -12.2609 -7.901
RightFoot  -4.73081 -0.476707 7.68398
RightToes  -1.33073e-015 0 -3.6325e-017
Spine  -3.81514 -1.05175 -3.42927
Spine1  7.88038 -1.157 0.180075
HEad  6.00791 20.5352 -4.47367
LeftShoulder1  1.6587 -2.82226 -20.9234
LeftArm  5.93106 -2.44758 -54.0435
LeftForeArm  36.6858 0.283394 -14.2073
LeftHand  0.0137827 5.96584 7.55582
RightShoulder  1.66526 1.77362 26.7751
RightArm  -16.135 9.91195 55.898
RightForeArm  67.3931 -5.83482 7.60367
RightHand  0.183179 -6.51281 -20.066
LeftUpLeg  -4.73214 -0.0878041 -8.65502
LeftLeg  16.7306 -1.31514 0.135916
LeftFoot  -12.5825 0.148973 6.75255
LeftToes  1.09107e-011 -1.16422e-010 2.98337e-011
224
root  37.1302 39.332 -31.2445 -1.55022 -41.5879 3.03181
RightUpLeg  -23.5537 3.29003 -3.40082
RightLeg  19.903 -12.2713 -5.07528
RightFoot  -4.86876 -0.489039 8.04818
RightToes  -1.33073e-015 0 -3.6325e-017
Spine  -4.19091 -1.35689 -3.52667
Spine1  8.06244 -1.40606 0.347384
HEad  7.41736 18.5954 -3.45578
LeftShoulder1  1.74129 -3.14466 -20.8474
LeftArm  6.30692 -3.56641 -54.5746
LeftForeArm  36.6771 0.423818 -14.2947
LeftHand  0.0108363 5.96768 7.39873
RightShoulder  1.60364 1.58208 26.7927
RightArm  -16.588 9.05189 55.5865
RightForeArm  67.4975 -6.04868 7.46802
RightHand  0.209768 -6.65967 -20.168
LeftUpLeg  -2.27125 0.192155 -8.49241
LeftLeg  16.1022 -1.94098 0.0869693
LeftFoot  -14.082 0.241062 6.52752
LeftToes  1.09107e-011 -1.16422e-010 2.98337e-011
225
root  36.2998 39.2447 -30.3198 -1.53087 -41.288 3.04839
RightUpLeg  -22.4034 -0.418273 -1.57201
RightLeg  10.104 -10.406 -2.24878
RightFoot  -5.04958 -0.520589 8.82793
RightToes  -1.33073e-015 0 -3.6325e-017
Spine  -5.12265 -1.71921 -3.85299
Spine1  8.65475 -1.71655 0.472418
HEad  9.10007 16.7276 -2.50608
LeftShoulder1  1.79736 -3.36626 -20.7883
LeftArm  6.02585 -4.32581 -54.9072
LeftForeArm  36.72 0.87247 -14.3019
LeftHand  0.00966663 5.90631 7.2375
RightShoulder  1.52401 1.32511 26.887
RightArm  -17.5871 8.26896 55.1835
RightForeArm  68.3837 -5.9509 7.07066
RightHand  0.202554 -6.61417 -20.2238
LeftUpLeg  0.202641 0.69389 -8.37007
LeftLeg  15.3355 -2.57152 -0.126588
LeftFoot  -15.535 0.327186 6.37676
LeftToes  1.09107e-011 -1.16422e-010 2.98337e-011
226
root  35.4205 39.1179 -29.3667 -1.21303 -41.3421 2.97435
RightUpLeg  -21.5019 0.248967 -1.05933
RightLeg  2.06397 -14.0672 0.365864
RightFoot  -4.43171 -0.653805 10.3019
RightToes  -1.33073e-015 0 -3.6325e-017
Spine  -6.34156 -2.08422 -4.06901
Spine1  9.23273 -2.05092 0.604499
HEad  11.1049 15.2558 -1.56099
LeftShoulder1  1.75865 -3.23503 -20.7329
LeftArm  5.41748 -4.58158 -55.1003
LeftForeArm  36.7679 1.38044 -14.242
LeftHand  0.00669665 5.89661 7.05127
RightShoulder  1.43952 1.03902 27.1055
RightArm  -18.5001 7.30492 54.5352
RightForeArm  69.2119 -5.86379 6.72903
RightHand  0.237141 -6.79822 -20.4125
LeftUpLeg  2.48976 1.28938 -8.0717
LeftLeg  14.577 -2.89275 -0.356046
LeftFoot  -16.9548 0.434296 6.76929
LeftToes  1.09107e-011 -1.16422e-010 2.98337e-011
227
root  34.5119 38.9162 -28.388 -0.621552 -41.9601 3.01788
RightUpLeg  -22.1314 1.83438 -0.182405
RightLeg  -1.62518 -17.4625 1.25413
RightFoot  -4.79497 -0.550208 9.03023
RightToes  -1.33073e-015 0 -3.6325e-017
Spine  -7.24157 -2.28557 -4.25764
Spine1  8.93818 -2.19153 0.667403
HEad  13.2698 14.1207 -0.726036
LeftShoulder1  1.68789 -2.96833 -20.7478
LeftArm  4.89585 -4.12352 -55.1212
LeftForeArm  36.6867 1.65547 -14.1733
LeftHand  0.00348423 5.85044 6.91747
RightShoulder  1.30865 0.645419 27.0721
RightArm  -19.8485 5.82797 53.9194
RightForeArm  70.2619 -5.72872 6.14883
RightHand  0.27625 -7.01215 -20.5104
LeftUpLeg  4.31003 1.80912 -7.91378
LeftLeg  14.1477 -2.80047 -0.51581
LeftFoot  -18.6092 0.540058 6.73233
LeftToes  1.09107e-011 -1.16422e-010 2.98337e-011
228
root  33.5752 38.6873 -27.3789 -0.275436 -42.519 2.80577
RightUpLeg  -22.9634 2.33635 0.770784
RightLeg  -0.668543 -19.2029 1.77671
RightFoot  -5.14661 -0.549362 9.48226
RightToes  -1.33073e-015 0 -3.6325e-017
Spine  -7.21135 -2.47164 -4.35348
Spine1  8.42296 -2.41701 0.812317
HEad  14.8018 13.2133 -0.258761
LeftShoulder1  1.68455 -2.88075 -21.0967
LeftArm  4.70812 -3.49332 -54.731
LeftForeArm  36.5066 1.73531 -14.1631
LeftHand  -0.000223841 5.78087 6.94761
RightShoulder  1.18792 0.304445 26.8248
RightArm  -21.1994 4.05274 53.0562
RightForeArm  70.8119 -5.61116 5.56093
RightHand  0.274696 -7.02661 -20.2501
LeftUpLeg  6.45278 2.27163 -7.68447
LeftLeg  14.1559 -2.74752 -0.432585
LeftFoot  -20.1702 0.603087 6.23361
LeftToes  1.09107e-011 -1.16422e-010 2.98337e-011
229
root  32.6258 38.552 -26.3793 0.410934 -42.3886 1.97899
RightUpLeg  -23.1779 2.73185 2.21627
RightLeg  1.97816 -21.7022 1.18722
RightFoot  -3.79757 -0.572239 8.27236
RightToes  -1.33073e-015 0 -3.6325e-017
Spine  -7.12947 -2.86462 -4.38549
Spine1  8.57324 -3.08597 1.56348
HEad  15.1536 12.5573 -0.311662
LeftShoulder1  1.76028 -3.02062 -21.7317
LeftArm  3.7857 -3.24402 -54.2261
LeftForeArm  37.2279 2.73632 -14.0651
LeftHand  -0.00716731 5.65225 7.00619
RightShoulder  1.07677 -0.0452963 26.9246
RightArm  -22.2226 2.49186 51.5252
RightForeArm  70.1347 -5.57252 5.16343
RightHand  0.27023 -7.00319 -20.2253
LeftUpLeg  8.46931 2.81356 -6.66768
LeftLeg  14.546 -3.71385 -0.665218
LeftFoot  -20.8032 0.542735 5.04303
LeftToes  1.09107e-011 -1.16422e-010 2.98337e-011
230
root  31.6321 38.542 -25.3556 1.5238 -41.3122 0.767975
RightUpLeg  -22.3925 2.56905 3.77036
RightLeg  4.31711 -24.1013 0.441374
RightFoot  -2.2442 -0.43541 5.276
RightToes  -1.33073e-015 0 -3.6325e-017
Spine  -7.15029 -3.55315 -4.53861
Spine1  8.84639 -4.26126 3.06601
HEad  15.4445 11.9549 -0.468831
LeftShoulder1  1.83358 -3.18607 -22.1791
LeftArm  3.83075 -2.72667 -54.0287
LeftForeArm  37.2717 3.88009 -14.2207
LeftHand  -0.00294808 5.72737 7.00853
RightShoulder  0.913531 -0.553545 27.0513
RightArm  -23.1744 0.909115 49.6122
RightForeArm  69.3234 -5.5414 4.78273
RightHand  0.289509 -7.08336 -20.5524
LeftUpLeg  9.93331 2.38398 -5.44278
LeftLeg  15.5624 -4.56651 -0.665402
LeftFoot  -20.052 0.382858 3.44405
LeftToes  1.09107e-011 -1.16422e-010 2.98337e-011
231
root  30.5834 38.6665 -24.2719 2.9792 -40.1668 -0.893021
RightUpLeg  -21.1816 3.72062 5.28444
RightLeg  5.38179 -26.0933 -0.277678
RightFoot  -0.372643 -0.090071 0.911241
RightToes  -1.33073e-015 0 -3.6325e-017
Spine  -7.28684 -4.03152 -3.87125
Spine1  9.11619 -5.28539 4.57806
HEad  16.1309 11.0504 -0.620703
LeftShoulder1  1.88976 -3.36095 -22.288
LeftArm  3.35847 -1.89131 -54.3517
LeftForeArm  38.0809 5.59597 -14.2417
LeftHand  0.00477696 5.91188 6.54629
RightShoulder  0.731852 -1.11744 27.2375
RightArm  -24.2564 -1.29429 47.2925
RightForeArm  68.9102 -5.47679 4.29517
RightHand  0.336986 -7.36072 -20.4662
LeftUpLeg  10.8702 0.861023 -3.79134
LeftLeg  17.309 -4.77187 -1.05062
LeftFoot  -17.8225 0.140144 0.586538
LeftToes  1.09107e-011 -1.16422e-010 2.98337e-011
232
root  29.4782 38.8195 -23.1327 4.57475 -40.5629 -2.83154
RightUpLeg  -20.5694 4.9211 7.32071
RightLeg  8.00379 -26.3566 -1.97703
RightFoot  1.88248 0.0848639 -0.620957
RightToes  -1.33073e-015 0 -3.6325e-017
Spine  -7.61151 -3.81158 -2.04264
Spine1  9.34013 -5.33795 5.22405
HEad  17.387 10.3481 -0.67095
LeftShoulder1  1.87569 -3.21721 -22.721
LeftArm  2.68926 -0.916732 -54.4123
LeftForeArm  38.9886 7.51829 -14.1439
LeftHand  0.011836 6.09125 6.2328
RightShoulder  0.674048 -1.31244 27.5922
RightArm  -25.9071 -3.3595 44.7525
RightForeArm  68.7452 -5.33483 3.40252
RightHand  0.391263 -7.65334 -20.5909
LeftUpLeg  10.6659 1.39446 -1.35889
LeftLeg  21.2167 -6.14468 -2.29618
LeftFoot  -13.8535 0.00921742 -3.36563
LeftToes  1.09107e-011 -1.16422e-010 2.98337e-011
233
root  28.3973 38.8535 -22.0167 6.3024 -41.868 -4.62146
RightUpLeg  -20.0523 3.80921 9.10007
RightLeg  11.2578 -23.9334 -2.08393
RightFoot  -1.04099 0.000355605 -0.0825493
RightToes  -1.33073e-015 0 -3.6325e-017
Spine  -7.82534 -3.4722 0.143585
Spine1  9.36391 -4.91586 5.29518
HEad  19.0344 10.2446 -0.566834
LeftShoulder1  1.77783 -2.79746 -23.1151
LeftArm  1.38137 0.574102 -54.2734
LeftForeArm  39.9454 7.53528 -14.0056
LeftHand  0.0349858 6.65096 5.86815
RightShoulder  0.706799 -1.20505 27.4344
RightArm  -28.742 -4.60304 43.225
RightForeArm  69.7828 -4.9996 1.64394
RightHand  0.405842 -7.73363 -20.6056
LeftUpLeg  7.90663 4.36678 1.90921
LeftLeg  29.3063 -9.75019 -5.54091
LeftFoot  -7.64768 0.314684 -8.32981
LeftToes  1.09107e-011 -1.16422e-010 2.98337e-011
234
root  27.3895 38.8342 -21.0518 8.08182 -42.4242 -6.52837
RightUpLeg  -19.2998 4.09982 10.9146
RightLeg  13.4873 -23.0765 -2.7434
RightFoot  -3.14651 0.00343549 -0.346343
RightToes  -1.33073e-015 0 -3.6325e-017
Spine  -7.13633 -3.59567 1.98726
Spine1  8.96992 -4.94674 5.64041
HEad  20.1451 10.5681 -0.463316
LeftShoulder1  1.66055 -2.40996 -23.0316
LeftArm  1.09977 2.75315 -53.7945
LeftForeArm  38.976 7.60966 -13.9085
LeftHand  0.0165312 6.30202 5.60701
RightShoulder  0.776838 -0.966542 27.0155
RightArm  -31.4643 -5.43329 42.6585
RightForeArm  70.8067 -4.65819 -0.128976
RightHand  0.445722 -8.08072 -19.7442
LeftUpLeg  2.89407 6.0597 5.5296
LeftLeg  40.1322 -12.043 -10.3263
LeftFoot  0.566293 1.48723 -14.235
LeftToes  1.09107e-011 -1.16422e-010 2.98337e-011
235
root  26.4112 38.7082 -20.1074 9.28795 -43.7323 -7.93861
RightUpLeg  -18.7564 3.79201 12.5611
RightLeg  16.7272 -21.5409 -3.52156
RightFoot  -5.60293 0.0595847 -1.94552
RightToes  -1.33073e-015 0 -3.6325e-017
Spine  -6.3893 -3.3277 3.92363
Spine1  9.03895 -4.35714 5.2209
HEad  20.724 10.9388 -0.0127891
LeftShoulder1  1.6079 -2.28172 -22.7394
LeftArm  0.54404 4.61799 -53.2681
LeftForeArm  38.1725 7.19481 -13.722
LeftHand  0.0276255 6.53847 5.67344
RightShoulder  0.807049 -0.869683 26.9453
RightArm  -32.8618 -5.91976 42.2623
RightForeArm  70.506 -4.51273 -1.04528
RightHand  0.422904 -8.12582 -18.5559
LeftUpLeg  -2.49032 7.01424 8.00271
LeftLeg  49.9948 -11.7155 -14.16
LeftFoot  10.5224 3.71351 -19.4016
LeftToes  1.09107e-011 -1.16422e-010 2.98337e-011
236
root  25.4499 38.6197 -19.1199 10.1237 -45.0392 -8.99651
RightUpLeg  -17.4052 2.20814 13.4464
RightLeg  18.8984 -18.7028 -2.91051
RightFoot  -8.71394 0.00131408 -2.62662
RightToes  -1.33073e-015 0 -3.6325e-017
Spine  -5.6364 -3.0453 5.49933
Spine1  9.06153 -3.75749 4.75142
HEad  21.0694 11.4153 0.251212
LeftShoulder1  1.53587 -1.893 -23.547
LeftArm  1.36931 5.68914 -51.6822
LeftForeArm  37.292 5.50139 -13.9204
LeftHand  0.0202957 6.41564 5.48719
RightShoulder  0.828732 -0.820455 27.1788
RightArm  -32.487 -5.68374 41.5485
RightForeArm  69.569 -4.58364 -0.844765
RightHand  0.424447 -8.17258 -18.3291
LeftUpLeg  -7.54938 7.11054 9.51052
LeftLeg  57.3445 -9.24725 -14.691
LeftFoot  13.293 4.03434 -18.711
LeftToes  1.09107e-011 -1.16422e-010 2.98337e-011
